<?xml version="1.0" encoding="UTF-8" standalone="no"?>
<!-- Created with Inkscape (http://www.inkscape.org/) -->

<svg
   version="1.1"
   id="svg1"
   width="295.93896"
   height="431.68207"
   viewBox="0 0 295.93896 431.68207"
   sodipodi:docname="logo.svg"
   inkscape:version="1.3 (0e150ed6c4, 2023-07-21)"
   xmlns:inkscape="http://www.inkscape.org/namespaces/inkscape"
   xmlns:sodipodi="http://sodipodi.sourceforge.net/DTD/sodipodi-0.dtd"
   xmlns="http://www.w3.org/2000/svg"
   xmlns:svg="http://www.w3.org/2000/svg">
  <defs
     id="defs1" />
  <sodipodi:namedview
     id="namedview1"
     pagecolor="#ffffff"
     bordercolor="#000000"
     borderopacity="0.25"
     inkscape:showpageshadow="2"
     inkscape:pageopacity="0.0"
     inkscape:pagecheckerboard="0"
     inkscape:deskcolor="#d1d1d1"
     inkscape:zoom="0.65186405"
     inkscape:cx="79.771234"
     inkscape:cy="391.18586"
     inkscape:window-width="1265"
     inkscape:window-height="693"
     inkscape:window-x="6"
     inkscape:window-y="30"
     inkscape:window-maximized="1"
     inkscape:current-layer="g1" />
  <g
     inkscape:groupmode="layer"
     inkscape:label="Image"
     id="g1"
     transform="translate(-108.04276,-39.836449)">
    <path
       id="rect1195"
       style="display:inline;fill:#1b1e1f;fill-opacity:1"
       d="m 284.54297,118.85547 c -2.13776,-0.0189 -4.32166,0.12523 -6.54297,0.44531 -1.78475,0.25718 -3.48712,0.63736 -5.11914,1.125 -1.63202,0.48764 -3.19281,1.08119 -4.69531,1.76758 -1.5025,0.68639 -2.94756,1.46494 -4.34375,2.31836 -1.3962,0.85342 -2.74354,1.78275 -4.05664,2.77148 -2.6262,1.97747 -5.10988,4.19305 -7.54297,6.52149 -2.4331,2.32844 -4.8165,4.76962 -7.24219,7.19531 l -40,40 c -4.50424,4.50424 -9.14936,8.97652 -13.85352,13.45703 -4.70415,4.48051 -9.46813,8.96936 -14.20898,13.50391 -4.74085,4.53455 -9.45792,9.11489 -14.07227,13.78125 -4.61434,4.66636 -9.12459,9.41898 -13.44921,14.29492 -2.16232,2.43797 -4.27861,4.90716 -6.3379,7.41211 -2.05928,2.50495 -4.06219,5.04531 -5.99804,7.62695 -1.93585,2.58165 -3.80564,5.20498 -5.59766,7.87305 -1.79201,2.66806 -3.50698,5.38032 -5.13476,8.14453 -1.62778,2.76421 -3.16819,5.57915 -4.61133,8.44922 -1.44315,2.87007 -2.78924,5.7956 -4.02735,8.78125 -1.2381,2.98565 -2.36819,6.03162 -3.38086,9.14258 -1.01266,3.11095 -1.907,6.28722 -2.67382,9.5332 -0.7089,3.00077 -1.31046,5.99784 -1.80664,8.98633 -0.49618,2.98849 -0.88616,5.96795 -1.17578,8.9375 -0.28963,2.96954 -0.47912,5.92912 -0.56836,8.87305 -0.0893,2.94392 -0.0796,5.8735 0.0254,8.78515 0.10496,2.91165 0.3066,5.80503 0.59961,8.67774 0.29301,2.8727 0.67746,5.72368 1.15234,8.55078 0.47488,2.82709 1.03886,5.62948 1.68945,8.40429 0.65059,2.77482 1.38886,5.52241 2.20899,8.23828 0.82012,2.71588 1.72354,5.40053 2.70703,8.05079 0.98349,2.65026 2.04681,5.26576 3.1875,7.84375 1.14069,2.57798 2.35867,5.11814 3.65039,7.61718 1.29172,2.49905 2.65717,4.95766 4.09375,7.3711 1.43657,2.41343 2.94426,4.78235 4.51953,7.10351 1.57527,2.32116 3.218,4.59419 4.92578,6.81641 1.70779,2.22222 3.48032,4.39315 5.31445,6.50976 1.83414,2.11662 3.72928,4.17926 5.6836,6.1836 1.95432,2.00434 3.96682,3.95053 6.03515,5.83594 2.06834,1.8854 4.19297,3.70895 6.36914,5.46875 2.17618,1.75979 4.4038,3.45645 6.68165,5.08398 2.27785,1.62753 4.60516,3.18719 6.97851,4.67578 2.37336,1.48859 4.79317,2.90506 7.25586,4.24805 2.46269,1.34299 4.96977,2.61201 7.51563,3.80273 2.54585,1.19072 5.13105,2.30416 7.7539,3.33594 2.62286,1.03178 5.28288,1.98147 7.97656,2.84766 2.69369,0.86618 5.42135,1.64788 8.17969,2.34179 2.75834,0.69392 5.54645,1.30143 8.36328,1.81641 2.81684,0.51498 5.6621,0.93819 8.53125,1.26758 2.86916,0.32938 5.76243,0.56405 8.67774,0.70117 2.9153,0.13712 5.8533,0.17705 8.80859,0.11523 2.95529,-0.0618 5.92887,-0.22477 8.91797,-0.49218 2.9891,-0.26741 5.99302,-0.63947 9.00977,-1.11914 3.01674,-0.47968 6.04576,-1.06703 9.08398,-1.76563 3.00234,-0.69035 5.95147,-1.47444 8.84766,-2.3457 2.89619,-0.87126 5.74031,-1.83097 8.52734,-2.875 2.78703,-1.04404 5.51851,-2.17219 8.19336,-3.38086 2.67485,-1.20868 5.2919,-2.4981 7.85156,-3.86328 2.55966,-1.36518 5.0605,-2.80481 7.50196,-4.31836 2.44145,-1.51355 4.82429,-3.10013 7.14453,-4.75391 2.32023,-1.65378 4.57938,-3.37623 6.77539,-5.16211 2.196,-1.78588 4.32772,-3.63507 6.39648,-5.54492 2.06876,-1.90984 4.07322,-3.88058 6.01172,-5.90625 1.9385,-2.02567 3.81197,-4.10687 5.61719,-6.24023 1.80522,-2.13337 3.542,-4.31786 5.21093,-6.55078 1.66894,-2.23293 3.26921,-4.51355 4.79883,-6.8379 1.52963,-2.32434 2.98965,-4.69197 4.37696,-7.0996 1.38731,-2.40764 2.70333,-4.85511 3.94531,-7.3379 1.24198,-2.48278 2.41027,-5.00097 3.5039,-7.55078 1.09364,-2.5498 2.11242,-5.13154 3.05469,-7.74023 0.94227,-2.60869 1.80781,-5.24486 2.59571,-7.9043 0.78789,-2.65943 1.4984,-5.34287 2.1289,-8.04492 0.63051,-2.70205 1.18029,-5.42363 1.65039,-8.16016 0.47011,-2.73652 0.85933,-5.48713 1.16602,-8.25 0.30668,-2.76286 0.53162,-5.53728 0.67187,-8.31836 0.14026,-2.78107 0.19521,-5.56823 0.16602,-8.35937 -0.0292,-2.79114 -0.1421,-5.58583 -0.34375,-8.37891 -0.20165,-2.79308 -0.49202,-5.58616 -0.86914,-8.37304 -0.37713,-2.78688 -0.84087,-5.5673 -1.39649,-8.33985 -0.55561,-2.77254 -1.20233,-5.53703 -1.93945,-8.28711 -0.73712,-2.75007 -1.56469,-5.4856 -2.48633,-8.20507 -0.92163,-2.71948 -1.93771,-5.42279 -3.04687,-8.10352 -1.10917,-2.68073 -2.31162,-5.34075 -3.61133,-7.97461 -1.29971,-2.63386 -2.69619,-5.24146 -4.18945,-7.82031 -1.49327,-2.57885 -3.0836,-5.12883 -4.77344,-7.64453 -1.68984,-2.51571 -3.47971,-4.99698 -5.36914,-7.44141 -1.5923,-2.06002 -3.22485,-4.12235 -4.92969,-6.125 -1.70484,-2.00265 -3.48074,-3.94619 -5.36328,-5.76562 -1.88254,-1.81944 -3.87068,-3.51503 -5.99609,-5.0254 -1.06271,-0.75518 -2.15928,-1.46482 -3.29493,-2.11914 -1.13564,-0.65431 -2.31061,-1.25329 -3.52734,-1.79101 -1.30837,-0.57822 -2.63608,-1.08451 -3.97852,-1.51953 -1.34243,-0.43503 -2.69891,-0.79901 -4.06445,-1.09375 -1.36554,-0.29475 -2.74146,-0.52036 -4.11914,-0.67774 -1.37768,-0.15737 -2.75786,-0.24661 -4.13672,-0.26953 -1.37886,-0.0229 -2.75593,0.0203 -4.125,0.12891 -1.36907,0.10862 -2.7298,0.28227 -4.07812,0.51953 -1.34833,0.23725 -2.68339,0.53937 -4,0.90234 -1.31661,0.36298 -2.61474,0.78766 -3.88867,1.27344 -1.27394,0.48578 -2.52385,1.03104 -3.74415,1.63672 -1.22029,0.60567 -2.41071,1.27148 -3.5664,1.99414 -1.15569,0.72266 -2.2773,1.50312 -3.35742,2.33984 -1.08012,0.83673 -2.1197,1.72985 -3.11329,2.67774 -0.99358,0.94788 -1.94179,1.94973 -2.83789,3.00586 -0.89609,1.05613 -1.7397,2.16666 -2.52734,3.32812 -0.78764,1.16147 -1.51928,2.37479 -2.1875,3.63867 -0.66822,1.26389 -1.27271,2.57802 -1.81055,3.94141 -0.60343,1.5297 -1.10634,3.01062 -1.51562,4.44922 -0.40928,1.4386 -0.72467,2.83445 -0.95508,4.1914 -0.23041,1.35696 -0.37654,2.67617 -0.44336,3.96094 -0.0668,1.28477 -0.0541,2.53577 0.0273,3.75782 0.0815,1.22204 0.23277,2.41519 0.44727,3.58398 0.2145,1.16878 0.49199,2.31252 0.82422,3.4375 0.66446,2.24996 1.5481,4.42317 2.5918,6.55469 1.04369,2.13151 2.24623,4.2218 3.54687,6.31054 1.30065,2.08875 2.69945,4.17522 4.13477,6.29688 1.43532,2.12166 2.90774,4.27756 4.35547,6.50781 1.44772,2.23025 2.87113,4.53469 4.20898,6.94922 0.93972,1.69599 1.79249,3.42368 2.55469,5.17773 0.76219,1.75406 1.43355,3.53477 2.01367,5.33594 0.58012,1.80117 1.06746,3.62361 1.46094,5.46094 0.39348,1.83733 0.69419,3.6902 0.89648,5.55273 0.20229,1.86254 0.30792,3.73454 0.31445,5.61133 0.007,1.87679 -0.0875,3.75662 -0.28125,5.63672 -0.19377,1.8801 -0.48808,3.76036 -0.88671,5.63281 -0.39864,1.87245 -0.90172,3.73795 -1.50977,5.5918 -0.67415,2.05536 -1.46031,4.03432 -2.34961,5.93359 -0.8893,1.89927 -1.88159,3.71934 -2.9668,5.45703 -1.0852,1.7377 -2.26353,3.39226 -3.52539,4.9629 -1.26186,1.57063 -2.60612,3.05698 -4.02539,4.45507 -1.41926,1.39809 -2.91328,2.70768 -4.4707,3.92774 -1.55742,1.22005 -3.17915,2.35018 -4.85547,3.38672 -1.67632,1.03653 -3.40761,1.98059 -5.18359,2.82812 -1.77598,0.84753 -3.59674,1.59892 -5.45313,2.25195 -1.85638,0.65304 -3.74847,1.20711 -5.66601,1.66016 -1.91755,0.45305 -3.86087,0.80515 -5.82032,1.05274 -1.95944,0.24758 -3.93391,0.3911 -5.91601,0.42773 -1.98211,0.0366 -3.97152,-0.0331 -5.95703,-0.21289 -1.98552,-0.17982 -3.96783,-0.46935 -5.9375,-0.87109 -1.96967,-0.40175 -3.92675,-0.91576 -5.86133,-1.54493 -1.93458,-0.62916 -3.84633,-1.37426 -5.72656,-2.23632 -1.88024,-0.86207 -3.72851,-1.84095 -5.53516,-2.94141 -1.59408,-0.97098 -3.11762,-2.02053 -4.56836,-3.13867 -1.45074,-1.11814 -2.82822,-2.30621 -4.13281,-3.55664 -1.30459,-1.25044 -2.53578,-2.56377 -3.69141,-3.93164 -1.15562,-1.36788 -2.23639,-2.78931 -3.24023,-4.25977 -1.00385,-1.47046 -1.93005,-2.9887 -2.7793,-4.54687 -0.84925,-1.55818 -1.62066,-3.15608 -2.3125,-4.78711 -0.69184,-1.63104 -1.30432,-3.29534 -1.83594,-4.98438 -0.53162,-1.68903 -0.98298,-3.40259 -1.35156,-5.13476 -0.36858,-1.73218 -0.65469,-3.48369 -0.85742,-5.24415 -0.20273,-1.76045 -0.32141,-3.53081 -0.35547,-5.30468 -0.0341,-1.77388 0.0169,-3.54983 0.1543,-5.32227 0.13742,-1.77243 0.36015,-3.54074 0.67187,-5.29687 0.31172,-1.75614 0.71234,-3.50159 1.20117,-5.22657 0.48884,-1.72497 1.06562,-3.43041 1.73438,-5.10937 0.66876,-1.67896 1.42975,-3.33114 2.28125,-4.94922 0.8515,-1.61808 1.79498,-3.2018 2.83203,-4.74414 1.89395,-2.81674 4.00859,-5.50361 6.26562,-8.09766 2.25704,-2.59404 4.65661,-5.09443 7.11719,-7.54296 C 218.05398,284.4623 223.22181,279.7782 228,275 l 60,-60 c 4.96666,-4.96666 10.47242,-9.85681 15.75977,-14.93555 2.64367,-2.53937 5.23165,-5.12666 7.67187,-7.79297 2.44022,-2.6663 4.73161,-5.4123 6.7793,-8.27148 1.33495,-1.864 2.48501,-3.76729 3.45898,-5.69727 0.97398,-1.92997 1.77281,-3.8865 2.4043,-5.85546 0.63149,-1.96896 1.09679,-3.9507 1.4043,-5.93165 0.3075,-1.98094 0.45697,-3.9618 0.45898,-5.92773 0.002,-1.96593 -0.1447,-3.91788 -0.42969,-5.8418 -0.28499,-1.92391 -0.70822,-3.81892 -1.26172,-5.67382 -0.55349,-1.85491 -1.23751,-3.66884 -2.04101,-5.42774 -0.8035,-1.75889 -1.7267,-3.46372 -2.76172,-5.09961 -1.03502,-1.63589 -2.18165,-3.20357 -3.42969,-4.68945 -1.24803,-1.48589 -2.59845,-2.88838 -4.04101,-4.19727 -1.44256,-1.30888 -2.97712,-2.52402 -4.59571,-3.6289 -1.61859,-1.10489 -3.31958,-2.10073 -5.0957,-2.97461 -1.77612,-0.87389 -3.62781,-1.62435 -5.54297,-2.24024 -1.91516,-0.61589 -3.89398,-1.09683 -5.92969,-1.42773 -2.0357,-0.3309 -4.12786,-0.51235 -6.26562,-0.53125 z" />
    <path
       id="path1196"
       style="display:inline;fill:#96d04a;fill-opacity:1"
       d="m 352.78516,39.878906 c -1.56847,0.06369 -3.16348,0.198897 -4.78516,0.410156 -1.82171,0.23732 -3.65905,0.569944 -5.48633,0.998047 -1.82728,0.428104 -3.64459,0.952235 -5.42773,1.570313 -1.78314,0.618078 -3.53142,1.33143 -5.22071,2.138672 -1.68928,0.807242 -3.3195,1.707528 -4.86523,2.703125 -1.36161,0.87701 -2.65806,1.7972 -3.88867,2.755859 -1.23061,0.958659 -2.39604,1.95544 -3.49805,2.988281 -1.10201,1.032842 -2.13942,2.101615 -3.11523,3.201172 -0.97582,1.099558 -1.89018,2.231818 -2.74219,3.390625 -0.85202,1.158807 -1.64243,2.344098 -2.37305,3.554688 -0.73062,1.21059 -1.40009,2.446265 -2.01172,3.701172 -0.61162,1.254907 -1.16512,2.528555 -1.66015,3.820312 -0.49504,1.291758 -0.93166,2.600733 -1.3125,3.921875 -0.76169,2.642284 -1.29785,5.335759 -1.61719,8.050781 -0.31934,2.715022 -0.42216,5.451658 -0.31836,8.179688 0.1038,2.728029 0.41415,5.4476 0.92188,8.128906 0.50772,2.681302 1.21302,5.323582 2.10546,7.898442 0.89244,2.57485 1.97253,5.08156 3.23047,7.49023 1.25794,2.40867 2.69265,4.71959 4.29688,6.90234 1.60422,2.18276 3.37729,4.23766 5.30859,6.13477 1.9313,1.8971 4.02061,3.63773 6.25977,5.18945 1.11958,0.77587 2.27776,1.50332 3.4707,2.18164 1.19294,0.67832 2.42165,1.30755 3.68555,1.88086 1.2639,0.57331 2.56207,1.0919 3.89453,1.55274 1.33246,0.46083 2.69904,0.86223 4.09766,1.20312 1.39861,0.34089 2.83059,0.62051 4.29296,0.83399 1.46238,0.21348 2.95479,0.36084 4.47852,0.43945 1.52373,0.0786 3.07748,0.0891 4.66016,0.0254 1.58267,-0.0637 3.19475,-0.20052 4.83398,-0.41406 1.88308,-0.24532 3.80292,-0.59377 5.72266,-1.04297 1.91973,-0.4492 3.8401,-1.00033 5.72265,-1.65235 1.88256,-0.65201 3.72651,-1.40405 5.49805,-2.25781 1.77154,-0.85375 3.46996,-1.80885 5.05664,-2.86328 1.34991,-0.89707 2.63221,-1.83517 3.84961,-2.81055 1.2174,-0.97537 2.36959,-1.98682 3.45703,-3.0332 1.08744,-1.04638 2.11026,-2.12622 3.07031,-3.23633 0.96005,-1.1101 1.85815,-2.25142 2.69336,-3.41797 0.83521,-1.16654 1.60738,-2.35852 2.32031,-3.57421 0.71294,-1.2157 1.36578,-2.45533 1.95899,-3.71289 0.59321,-1.25757 1.12747,-2.53403 1.60351,-3.82618 0.47605,-1.29214 0.89442,-2.60048 1.25586,-3.91992 0.72289,-2.63888 1.21823,-5.32495 1.49805,-8.029296 0.27982,-2.704348 0.34396,-5.425193 0.20117,-8.136718 -0.14279,-2.711526 -0.49217,-5.413804 -1.03711,-8.074219 -0.54493,-2.660415 -1.28627,-5.279061 -2.21289,-7.830078 -0.92661,-2.551017 -2.03834,-5.032684 -3.32617,-7.416016 -1.28783,-2.383331 -2.75032,-4.668813 -4.37891,-6.826172 -1.62858,-2.157358 -3.42222,-4.187449 -5.37109,-6.060547 -1.94887,-1.873097 -4.05404,-3.588591 -6.30273,-5.11914 -1.12435,-0.765275 -2.285,-1.485588 -3.48047,-2.154297 -1.19547,-0.668709 -2.42543,-1.286706 -3.68945,-1.851563 -1.26403,-0.564856 -2.5606,-1.075578 -3.89063,-1.529296 -1.33003,-0.453719 -2.69246,-0.850252 -4.08594,-1.185547 -1.39347,-0.335295 -2.81907,-0.610728 -4.27343,-0.820313 -1.45437,-0.209585 -2.93848,-0.353098 -4.45118,-0.429687 -1.51269,-0.07659 -3.05458,-0.08518 -4.62304,-0.02148 z" />
  </g>
</svg>
