<?xml version="1.0" encoding="UTF-8" standalone="no"?>
<!-- Created with Inkscape (http://www.inkscape.org/) -->

<svg
   version="1.1"
   id="svg1"
   width="245.75999"
   height="245.75999"
   viewBox="0 0 245.75999 245.75999"
   sodipodi:docname="95645.svg"
   inkscape:version="1.3 (0e150ed6c4, 2023-07-21)"
   xmlns:inkscape="http://www.inkscape.org/namespaces/inkscape"
   xmlns:sodipodi="http://sodipodi.sourceforge.net/DTD/sodipodi-0.dtd"
   xmlns="http://www.w3.org/2000/svg"
   xmlns:svg="http://www.w3.org/2000/svg">
  <defs
     id="defs1" />
  <sodipodi:namedview
     id="namedview1"
     pagecolor="#ffffff"
     bordercolor="#000000"
     borderopacity="0.25"
     inkscape:showpageshadow="2"
     inkscape:pageopacity="0.0"
     inkscape:pagecheckerboard="0"
     inkscape:deskcolor="#d1d1d1"
     inkscape:zoom="2.2013347"
     inkscape:cx="122.65286"
     inkscape:cy="122.88"
     inkscape:window-width="2548"
     inkscape:window-height="1404"
     inkscape:window-x="6"
     inkscape:window-y="30"
     inkscape:window-maximized="1"
     inkscape:current-layer="g1" />
  <g
     inkscape:groupmode="layer"
     inkscape:label="Image"
     id="g1">
    <path
       style="fill:#020202;stroke:none"
       d="m 6.7200023,39.295764 v 0.479995 C 34.034723,65.917808 62.094383,91.327688 89.760003,117.09873 c 7.520923,7.00588 15.202707,13.90988 22.559997,21.08407 2.54052,2.47731 6.64506,7.95921 10.08,8.96593 2.67454,0.78385 6.0692,-4.00216 7.68,-5.61296 6.43784,-6.43784 12.92957,-13.01048 19.68,-19.11851 21.34038,-19.30956 42.03108,-39.745262 62.4,-60.081502 5.15444,-5.14617 10.43791,-10.39051 15.83999,-15.27851 3.15444,-2.854259 7.29219,-5.761889 9.12,-9.681484 -6.81566,-2.625469 -13.92199,-1.92 -21.11999,-1.92 h -33.6 -119.039997 -36.48 c -7.25154,0 -14.070781,-0.802178 -20.1600007,3.84 M 245.27999,52.255758 170.88,124.25577 v 0.48 c 18.71106,15.23742 35.38173,33.32648 53.27999,49.52147 6.72247,6.08273 13.55338,15.4242 21.6,19.59853 -2.14365,-11.54712 -0.48,-24.73785 -0.48,-36.48 v -71.520012 -23.04 c 0,-3.26276 0.74737,-7.44868 0,-10.56 M 2.253418e-6,56.095758 V 145.85577 L 0.48000225,196.73577 C 7.1261023,193.63645 12.446462,185.88841 17.760003,180.93873 c 13.16338,-12.26196 25.71683,-25.17823 38.88,-37.44 4.38862,-4.08809 8.57173,-8.39224 12.96,-12.48 1.38301,-1.2883 4.70074,-3.17814 4.70074,-5.32296 0,-2.14925 -3.27758,-4.1618 -4.70074,-5.41704 -4.43549,-3.91214 -8.49376,-8.25943 -12.96,-12.13926 C 43.832313,97.013419 31.465533,85.080548 19.200003,73.356868 13.617803,68.021278 6.9845423,59.352838 2.253418e-6,56.095758 M 87.360003,136.73577 h -0.48 l -53.76,51.83815 -21.120001,20.64185 c 5.841631,1.85178 12.639671,0.96 18.720001,0.96 h 34.08 H 178.56 217.44 c 6.27263,0 13.47181,1.08635 19.19999,-1.92 -3.35096,-6.61875 -12.40913,-12.18267 -17.75999,-17.2989 -13.56917,-12.97412 -27.1079,-26.27353 -41.28,-38.5848 -4.47444,-3.88694 -8.56558,-8.21886 -12.96,-12.19483 -1.25517,-1.13563 -3.46199,-3.82444 -5.28,-3.82222 -2.96973,0.004 -7.63051,6.09137 -9.6,8.06075 -5.04654,5.04621 -10.31293,9.83324 -15.36,14.88 -2.56883,2.56866 -5.52434,6.24649 -9.12,7.36667 -5.11475,1.59342 -9.23052,-3.21003 -12.48,-6.40519 -8.14157,-8.00545 -16.587614,-16.31253 -25.439997,-23.52148 z"
       id="path1" />
  </g>
</svg>
